<?xml version="1.0" encoding="UTF-8" standalone="no"?>
<!-- Created with Inkscape (http://www.inkscape.org/) -->

<svg
   xmlns:dc="http://purl.org/dc/elements/1.1/"
   xmlns:cc="http://creativecommons.org/ns#"
   xmlns:rdf="http://www.w3.org/1999/02/22-rdf-syntax-ns#"
   xmlns:svg="http://www.w3.org/2000/svg"
   xmlns="http://www.w3.org/2000/svg"
   xmlns:sodipodi="http://sodipodi.sourceforge.net/DTD/sodipodi-0.dtd"
   xmlns:inkscape="http://www.inkscape.org/namespaces/inkscape"
   width="311.58157"
   height="68.46714"
   viewBox="0 0 82.439287 18.115265"
   version="1.1"
   id="svg8"
   inkscape:version="0.92.4 (5da689c313, 2019-01-14)"
   sodipodi:docname="logo.svg">
  <defs
     id="defs2" />
  <sodipodi:namedview
     id="base"
     pagecolor="#ffffff"
     bordercolor="#666666"
     borderopacity="1.0"
     inkscape:pageopacity="0.0"
     inkscape:pageshadow="2"
     inkscape:zoom="4"
     inkscape:cx="91.24297"
     inkscape:cy="16.657163"
     inkscape:document-units="mm"
     inkscape:current-layer="layer1"
     showgrid="false"
     units="px"
     inkscape:window-width="2556"
     inkscape:window-height="1614"
     inkscape:window-x="2"
     inkscape:window-y="84"
     inkscape:window-maximized="1"
     inkscape:pagecheckerboard="true"
     showguides="true"
     inkscape:guide-bbox="true"
     fit-margin-top="0"
     fit-margin-left="0"
     fit-margin-right="0"
     fit-margin-bottom="0">
    <sodipodi:guide
       position="-1.5959832e-07,17.835866"
       orientation="0,1"
       id="guide941"
       inkscape:locked="false" />
    <sodipodi:guide
       position="-1.5959832e-07,0.055865089"
       orientation="0,1"
       id="guide943"
       inkscape:locked="false" />
  </sodipodi:namedview>
  <metadata
     id="metadata5">
    <rdf:RDF>
      <cc:Work
         rdf:about="">
        <dc:format>image/svg+xml</dc:format>
        <dc:type
           rdf:resource="http://purl.org/dc/dcmitype/StillImage" />
        <dc:title />
      </cc:Work>
    </rdf:RDF>
  </metadata>
  <g
     inkscape:label="Layer 1"
     inkscape:groupmode="layer"
     id="layer1"
     transform="translate(-5.3036141,-234.55372)">
    <path
       sodipodi:type="star"
       style="opacity:1;vector-effect:none;fill:none;fill-opacity:1;stroke:#f0f0f0;stroke-width:24.43498039;stroke-linecap:butt;stroke-linejoin:miter;stroke-miterlimit:3;stroke-dasharray:none;stroke-dashoffset:0;stroke-opacity:1"
       id="path4520"
       sodipodi:sides="6"
       sodipodi:cx="67.854233"
       sodipodi:cy="229.11353"
       sodipodi:r1="62.72583"
       sodipodi:r2="54.322159"
       sodipodi:arg1="1.0471976"
       sodipodi:arg2="1.5707963"
       inkscape:flatsided="true"
       inkscape:rounded="0"
       inkscape:randomized="0"
       d="m 99.217145,283.43569 -62.72583,0 -31.3629123,-54.32217 31.3629173,-54.32216 62.72583,0 31.36291,54.32217 z"
       transform="matrix(0.13615346,0,0,0.13396002,68.043189,213.06328)"
       inkscape:export-xdpi="360"
       inkscape:export-ydpi="360" />
    <g
       aria-label="LMirx"
       transform="matrix(0.26458333,0,0,0.26458333,0,222.38744)"
       style="font-style:normal;font-weight:normal;font-size:40px;line-height:1.25;font-family:sans-serif;letter-spacing:0px;word-spacing:0px;fill:#f0f0f0;fill-opacity:1;stroke:none"
       id="flowRoot5157">
      <path
         d="m 62.573156,114.2388 h -42.528 v -67.2 h 13.152 v 55.488 h 29.376 z"
         style="font-style:normal;font-variant:normal;font-weight:bold;font-stretch:normal;font-size:96px;font-family:'PT Sans';-inkscape-font-specification:'PT Sans';fill:#f0f0f0;fill-opacity:1"
         id="path930"
         inkscape:connector-curvature="0" />
      <path
         d="m 121.48566,79.3908 1.44,-13.344 h -0.576 l -4.128,10.752 -14.304,25.056 h -4.224004 l -15.072,-25.152 -4.224,-10.656 h -0.48 l 1.92,13.248 v 34.944 h -12.48 v -67.2 h 12 l 17.952,30.72 3.168004,7.68 h 0.384 l 2.88,-7.872 16.992,-30.528 h 11.904 v 67.2 h -13.152 z"
         style="font-style:normal;font-variant:normal;font-weight:bold;font-stretch:normal;font-size:96px;font-family:'PT Sans';-inkscape-font-specification:'PT Sans';fill:#f0f0f0;fill-opacity:1"
         id="path932"
         inkscape:connector-curvature="0" />
      <path
         d="m 147.00066,66.2388 h 12.48 v 48 h -12.48 z m -1.824,-13.536 q 0,-2.784 2.016,-4.704 2.112,-2.016 5.76,-2.016 3.648,0 5.856,2.016 2.304,1.92 2.304,4.704 0,2.784 -2.304,4.704 -2.208,1.824 -5.856,1.824 -3.648,0 -5.76,-1.824 -2.016,-1.92 -2.016,-4.704 z"
         style="font-style:normal;font-variant:normal;font-weight:bold;font-stretch:normal;font-size:96px;font-family:'PT Sans';-inkscape-font-specification:'PT Sans';fill:#f0f0f0;fill-opacity:1"
         id="path934"
         inkscape:connector-curvature="0" />
      <path
         d="m 198.31566,77.9508 q -2.976,-1.056 -5.376,-1.056 -3.36,0 -5.664,1.824 -2.208,1.728 -2.976,4.512 v 31.008 h -12.48 v -48 h 9.696 l 1.44,6.336 h 0.384 q 1.632,-3.552 4.416,-5.472 2.784,-1.92 6.528,-1.92 2.496,0 5.664,1.056 z"
         style="font-style:normal;font-variant:normal;font-weight:bold;font-stretch:normal;font-size:96px;font-family:'PT Sans';-inkscape-font-specification:'PT Sans';fill:#f0f0f0;fill-opacity:1"
         id="path936"
         inkscape:connector-curvature="0" />
      <path
         d="m 216.41766,89.6628 -14.4,-23.424 h 14.88 l 6.24,10.272 2.688,6.72 2.88,-6.72 6.528,-10.272 h 13.536 l -14.496,23.04 15.456,24.96 h -14.496 l -7.392,-11.52 -2.88,-7.104 -3.072,7.104 -7.392,11.52 h -13.632 z"
         style="font-style:normal;font-variant:normal;font-weight:bold;font-stretch:normal;font-size:96px;font-family:'PT Sans';-inkscape-font-specification:'PT Sans';fill:#f0f0f0;fill-opacity:1"
         id="path938"
         inkscape:connector-curvature="0" />
    </g>
  </g>
</svg>
